<?xml version="1.0" standalone="no"?>
<!DOCTYPE svg PUBLIC "-//W3C//DTD SVG 20010904//EN"
 "http://www.w3.org/TR/2001/REC-SVG-20010904/DTD/svg10.dtd">
<svg version="1.0" xmlns="http://www.w3.org/2000/svg"
 width="426.000000pt" height="426.000000pt" viewBox="0 0 426.000000 426.000000"
 preserveAspectRatio="xMidYMid meet">
<metadata>
Created by potrace 1.11, written by Peter Selinger 2001-2013
</metadata>
<g transform="translate(0.000000,426.000000) scale(0.100000,-0.100000)"
fill="#000000" stroke="none">
<path d="M2516 3578 c3 -4 0 -8 -6 -8 -6 0 -9 -4 -5 -9 3 -5 0 -13 -6 -17 -8
-4 -9 -3 -5 5 6 9 0 10 -21 5 -37 -9 -44 -14 -38 -25 3 -5 0 -6 -8 -3 -8 3
-18 1 -22 -5 -4 -8 -12 -8 -26 -1 -10 6 -19 7 -19 3 0 -4 -5 -1 -10 7 -9 13
-10 13 -11 0 -1 -8 -1 -18 0 -22 0 -5 -5 -8 -12 -8 -7 0 -17 3 -23 8 -5 4 -1
-1 9 -10 22 -21 15 -23 -16 -6 -21 10 -21 10 -7 -7 14 -17 14 -17 -20 0 -28
14 -32 15 -22 3 10 -13 10 -17 -4 -22 -23 -9 -24 -8 -18 12 4 11 -1 8 -14 -8
-11 -13 -18 -28 -15 -33 3 -5 -4 -4 -16 2 -11 7 -21 16 -21 22 0 6 -7 3 -16
-5 -8 -9 -22 -16 -29 -16 -9 0 -12 -6 -9 -17 5 -14 4 -15 -4 -4 -6 8 -15 10
-23 6 -8 -5 -6 1 4 12 9 11 17 24 17 29 0 5 -5 1 -11 -8 -6 -11 -16 -15 -26
-11 -12 5 -14 3 -8 -8 6 -11 5 -11 -5 -2 -7 6 -19 9 -26 6 -9 -3 -14 2 -14 15
0 19 -27 38 -38 27 -3 -3 0 -5 6 -5 6 0 9 -7 6 -15 -5 -11 -9 -12 -19 -2 -7 7
-10 17 -7 22 3 6 2 7 -3 3 -4 -4 -15 -2 -23 5 -13 10 -14 9 -3 -12 11 -19 11
-22 -1 -15 -7 5 -26 10 -43 11 -47 4 -55 6 -50 12 9 8 44 8 39 -1 -3 -4 0 -8
5 -8 6 0 11 6 11 13 0 8 4 7 11 -3 9 -13 10 -13 7 0 -5 18 -79 24 -90 7 -6 -9
-8 -9 -8 1 0 6 -6 12 -14 12 -8 0 -17 -6 -20 -12 -4 -9 -5 -8 -5 2 2 29 -1 38
-17 44 -14 5 -15 4 -4 -9 11 -13 10 -14 -4 -9 -9 3 -16 11 -16 18 0 7 -3 8 -8
0 -7 -10 -84 -15 -77 -4 2 3 0 12 -6 20 -7 12 -9 12 -9 -3 0 -10 -4 -16 -9
-13 -13 8 -42 -4 -36 -14 3 -5 1 -12 -5 -15 -6 -4 -9 -1 -8 7 2 7 -4 11 -12 9
-8 -2 -20 -4 -26 -5 -7 -1 -19 -7 -27 -14 -8 -7 -23 -9 -32 -5 -12 4 -16 3
-11 -5 4 -7 0 -10 -12 -7 -10 2 -25 0 -32 -5 -15 -10 -42 -2 -35 10 3 5 1 12
-5 15 -6 4 -9 1 -8 -6 3 -12 -1 -14 -33 -18 -6 0 -9 -8 -6 -16 8 -20 -9 -28
-30 -15 -15 9 -14 10 7 5 20 -5 22 -4 8 5 -11 6 -25 7 -41 1 -14 -5 -28 -7
-31 -4 -3 3 -12 0 -20 -6 -8 -7 -30 -13 -49 -14 -24 -1 -33 -6 -29 -15 4 -11
6 -11 13 0 5 7 9 8 9 2 0 -21 -14 -24 -33 -7 -11 10 -17 12 -13 6 4 -7 3 -13
-1 -13 -5 0 -15 6 -23 13 -8 6 -6 1 5 -13 l20 -24 -26 16 c-20 13 -26 14 -26
3 0 -8 4 -12 8 -9 4 2 10 0 13 -5 3 -5 -9 -8 -28 -7 -19 1 -32 -2 -30 -6 3 -4
-7 -20 -21 -34 -15 -15 -20 -24 -12 -21 10 4 17 -2 20 -14 5 -17 3 -18 -11 -7
-14 11 -15 10 -9 -6 6 -16 5 -17 -8 -6 -20 16 -19 6 1 -14 8 -9 11 -16 5 -16
-6 0 -8 -8 -5 -17 5 -15 4 -15 -4 -3 -6 8 -9 17 -6 21 2 4 -1 11 -7 15 -7 4
-9 3 -6 -3 4 -6 0 -14 -9 -17 -8 -3 -12 -10 -9 -16 3 -5 1 -10 -6 -10 -7 0 -4
-7 7 -15 19 -14 19 -14 -1 -16 -11 -1 -23 -1 -27 0 -13 2 -9 -6 9 -20 15 -12
16 -12 8 1 -8 13 -7 13 8 1 20 -16 22 -22 5 -18 -7 1 -12 -5 -10 -13 1 -9 -6
-6 -18 9 -22 26 -26 21 -8 -12 11 -21 10 -21 -7 -7 -11 9 -16 10 -11 3 12 -20
16 -54 5 -48 -5 4 -10 1 -10 -4 -1 -6 -3 -15 -4 -21 -1 -5 -3 -16 -4 -22 -1
-8 -6 -6 -12 5 -5 9 -15 17 -22 17 -8 0 -8 -3 2 -9 10 -7 8 -12 -10 -26 -13
-10 -17 -15 -7 -12 9 3 19 -1 22 -9 4 -10 2 -12 -6 -8 -8 5 -9 2 -5 -9 4 -10
2 -16 -6 -14 -7 1 -11 -4 -9 -11 1 -8 -2 -11 -9 -7 -8 5 -8 10 0 18 6 6 11 16
11 22 0 5 -5 2 -11 -8 -6 -9 -14 -15 -19 -12 -5 3 -14 -3 -20 -14 -6 -11 -16
-19 -23 -17 -6 1 -9 1 -4 -1 4 -3 7 -12 7 -20 0 -12 -3 -13 -14 -4 -11 9 -20
9 -34 2 -11 -6 -23 -7 -27 -3 -3 4 -6 2 -4 -3 1 -6 -3 -21 -10 -35 -11 -23
-11 -23 -7 -3 5 28 -8 38 -31 23 -16 -9 -15 -10 4 -5 18 5 22 3 17 -9 -3 -8
-14 -13 -25 -11 -27 5 -46 -3 -54 -23 -5 -13 -2 -12 15 3 16 15 23 16 33 6 6
-7 8 -12 2 -11 -21 4 -36 0 -31 -9 4 -5 -2 -8 -11 -6 -10 2 -22 4 -26 4 -5 1
-6 5 -3 9 3 5 -1 9 -8 9 -8 0 -11 -8 -9 -18 3 -11 -3 -19 -16 -24 -13 -4 -18
-11 -14 -18 3 -7 -3 -4 -14 6 -25 22 -39 22 -22 0 7 -10 10 -15 5 -11 -9 8
-36 -13 -30 -24 3 -4 -9 -3 -26 2 -27 8 -29 7 -20 -10 15 -28 12 -36 -6 -14
-13 16 -15 16 -10 2 3 -12 0 -18 -9 -18 -8 0 -15 -5 -15 -11 0 -5 4 -7 10 -4
6 3 7 -1 4 -9 -3 -9 -10 -14 -14 -11 -5 3 -5 -8 0 -25 5 -17 5 -28 0 -25 -14
8 -22 -28 -8 -38 10 -6 9 -7 -4 -4 -9 3 -19 -1 -22 -9 -3 -8 -2 -13 3 -10 5 3
11 -1 14 -8 4 -10 0 -14 -13 -11 -14 3 -17 -1 -13 -12 5 -12 3 -14 -7 -8 -8 5
-11 4 -6 -3 3 -6 2 -13 -4 -17 -5 -3 -10 -12 -10 -18 0 -9 2 -9 8 0 5 8 12 8
26 -3 12 -8 14 -14 7 -14 -8 0 -11 -6 -7 -16 3 -9 2 -12 -5 -9 -6 4 -8 14 -5
22 3 8 1 11 -4 8 -6 -3 -10 -15 -10 -25 0 -10 -8 -24 -18 -29 -10 -6 -12 -11
-4 -11 7 0 10 -5 6 -12 -4 -7 -3 -8 5 -4 6 4 8 12 5 18 -5 7 -2 8 6 3 8 -5 11
-4 7 2 -3 5 0 10 8 10 10 0 12 -4 5 -12 -5 -7 -6 -16 -2 -20 4 -5 2 -5 -4 -2
-7 4 -15 0 -18 -9 -3 -8 -10 -12 -16 -9 -6 3 -7 -1 -4 -10 5 -13 9 -13 22 -3
13 12 14 11 2 -9 -8 -13 -20 -19 -29 -15 -14 5 -14 4 -1 -10 8 -9 19 -13 24
-10 5 3 6 0 2 -7 -4 -6 -11 -9 -16 -6 -5 3 -11 1 -15 -5 -3 -5 -2 -10 3 -10 6
0 12 -7 16 -15 4 -12 2 -13 -13 -5 -15 7 -19 6 -17 -5 1 -8 6 -18 11 -22 4 -4
5 -2 0 6 -5 10 -4 12 4 7 14 -9 5 -26 -15 -26 -8 0 -14 -5 -14 -11 0 -5 4 -8
9 -5 5 3 15 -2 22 -12 13 -16 13 -16 -5 -2 -18 14 -19 13 -13 -4 6 -16 5 -17
-8 -6 -13 11 -14 10 -8 -6 6 -17 5 -18 -12 -4 -17 14 -17 14 -4 -7 8 -13 16
-18 20 -12 4 7 8 6 11 -3 7 -16 -16 -51 -25 -41 -4 3 -8 1 -8 -5 -2 -14 -6
-30 -9 -37 -1 -3 -3 -11 -4 -17 -1 -7 -8 -12 -15 -10 -7 1 -10 -2 -6 -8 4 -7
13 -6 28 2 19 10 20 9 10 -4 -10 -11 -10 -17 0 -27 10 -11 8 -11 -10 -2 -14 7
-24 8 -28 1 -6 -10 1 -14 18 -11 5 1 6 -3 2 -9 -3 -5 0 -10 7 -10 8 0 6 -5 -5
-11 -22 -13 -22 -30 1 -23 16 5 16 5 -1 -6 -9 -6 -21 -9 -26 -6 -12 8 0 -48
13 -56 7 -5 5 -8 -5 -8 -8 0 -21 6 -29 13 -8 6 -7 3 2 -8 23 -28 23 -27 9 -52
-10 -20 -9 -22 6 -16 10 3 23 10 28 14 7 5 11 0 12 -14 0 -12 -1 -17 -4 -10
-2 7 -11 9 -18 7 -11 -5 -12 -9 -2 -19 7 -7 14 -11 17 -10 3 2 12 -1 20 -7 12
-8 12 -9 -2 -4 -10 3 -20 1 -23 -4 -4 -6 1 -10 10 -10 13 0 14 -4 5 -20 -10
-19 -10 -20 9 -8 11 6 17 16 14 22 -3 5 -1 6 6 2 6 -4 9 -11 6 -16 -3 -5 -1
-11 5 -15 5 -3 10 -11 10 -18 0 -6 -7 -2 -15 9 -14 18 -14 17 -4 -8 13 -31 43
-40 32 -10 -3 9 -3 14 1 10 4 -3 8 -12 10 -20 1 -7 6 -20 11 -28 8 -13 7 -13
-9 -1 -13 11 -19 12 -29 2 -9 -10 -8 -11 7 -5 13 5 17 4 12 -4 -4 -7 4 -9 26
-7 18 2 27 1 21 -2 -7 -2 -13 -11 -13 -18 0 -7 -6 -16 -12 -19 -9 -4 -8 -5 2
-5 44 3 53 -1 40 -17 -11 -13 -10 -16 8 -21 12 -3 22 -10 22 -15 0 -5 4 -7 9
-4 10 6 32 -16 35 -36 1 -7 6 -20 11 -28 5 -10 1 -8 -13 3 -12 11 -18 26 -15
35 4 15 3 15 -7 2 -10 -13 -11 -12 -5 5 5 16 4 17 -6 8 -9 -9 -9 -15 0 -27 6
-8 8 -16 4 -18 -4 -3 -3 -3 4 -2 6 2 17 -4 23 -12 7 -8 19 -14 26 -14 12 0 20
-28 15 -54 -1 -5 5 -3 14 4 13 11 13 15 3 22 -10 7 -10 8 2 5 16 -5 16 -10 5
-39 -4 -11 -3 -18 4 -18 6 0 11 4 11 9 0 11 26 8 37 -4 4 -4 3 -5 -3 -2 -17
10 -61 -27 -45 -37 6 -4 10 -4 9 1 -2 4 0 9 5 11 16 5 27 2 27 -9 0 -5 -5 -7
-12 -3 -7 5 -8 3 -3 -6 6 -10 11 -9 22 5 7 11 13 14 13 8 0 -7 -7 -18 -15 -26
-8 -8 -11 -17 -8 -21 3 -3 12 2 20 12 7 9 12 12 11 5 -2 -6 6 -19 17 -28 11
-9 14 -13 6 -9 -10 5 -12 3 -6 -6 6 -10 11 -9 23 6 14 18 14 18 8 -2 -5 -16 0
-23 19 -32 15 -7 24 -8 20 -3 -3 6 3 9 14 8 15 -1 17 -5 10 -13 -8 -9 -5 -11
9 -7 14 3 18 11 16 26 -4 21 -4 21 5 2 5 -11 5 -25 0 -31 -5 -7 -3 -11 6 -11
8 0 15 7 15 15 0 12 4 11 22 -4 12 -10 19 -14 15 -8 -3 6 1 11 9 11 8 0 13 -6
10 -13 -3 -8 -1 -16 5 -19 5 -4 6 -11 3 -17 -4 -7 -2 -8 5 -4 8 5 9 12 2 20
-7 8 -2 15 14 23 19 8 27 8 35 -2 6 -8 18 -11 26 -8 8 3 14 0 14 -6 0 -6 -5
-10 -11 -9 -6 2 -14 -4 -16 -12 -3 -9 -1 -11 4 -5 12 16 33 12 48 -8 11 -16
13 -16 19 -2 4 11 2 14 -6 9 -7 -4 -8 -3 -4 4 4 6 14 8 23 5 12 -5 14 -3 8 8
-7 11 -6 12 7 2 8 -7 19 -9 23 -5 5 4 5 1 1 -6 -4 -7 -11 -10 -16 -7 -5 3 -11
1 -15 -4 -3 -6 6 -8 21 -5 14 3 23 1 20 -4 -2 -4 0 -14 6 -22 8 -12 9 -12 4 3
-3 9 -1 17 5 17 6 0 8 4 4 9 -3 5 -1 12 4 16 6 3 8 -3 6 -13 -2 -14 3 -18 23
-17 15 0 33 4 40 9 7 4 12 4 11 -1 -3 -19 2 -31 17 -37 10 -4 13 -2 8 6 -5 8
-2 9 9 5 9 -3 19 -1 23 5 4 7 3 8 -4 4 -8 -5 -10 -1 -5 10 6 16 8 15 16 -4 10
-21 24 -23 59 -8 9 4 21 5 27 2 5 -4 12 -2 15 3 4 5 1 13 -5 17 -8 5 -9 3 -4
-7 5 -8 4 -10 0 -6 -5 4 -10 15 -11 24 -2 12 0 13 9 4 14 -14 30 -15 22 -1 -3
6 -1 10 5 10 6 0 10 -7 8 -16 -2 -10 3 -19 10 -21 6 -3 12 0 12 7 0 6 -5 8
-12 4 -6 -4 -8 -3 -5 4 10 15 43 7 39 -9 -1 -8 6 -4 17 8 21 25 37 31 25 11
-6 -10 -4 -10 7 0 10 9 10 15 1 24 -7 7 -12 17 -12 22 0 6 7 0 16 -12 17 -25
36 -21 28 6 -5 15 -4 15 6 -1 9 -14 9 -22 -1 -33 -8 -10 1 -7 24 6 20 12 37
26 37 32 0 5 -7 2 -16 -6 -17 -18 -28 -21 -20 -7 4 5 3 11 -1 14 -5 2 -3 2 4
1 7 -2 15 1 18 7 4 5 12 6 18 2 17 -10 57 -12 51 -1 -3 4 0 8 6 8 6 0 9 4 5 9
-3 5 0 13 6 17 7 4 9 3 6 -3 -10 -16 34 -31 84 -29 34 1 46 -2 45 -13 -1 -8 5
-16 12 -18 8 -3 10 1 5 14 -5 13 1 10 20 -9 17 -17 33 -25 43 -21 9 3 20 0 25
-8 7 -12 9 -12 9 0 0 11 4 10 14 -4 7 -10 21 -20 30 -21 13 -2 15 1 6 11 -8
10 -8 15 1 21 8 4 9 3 5 -4 -9 -15 6 -16 20 -2 7 7 11 6 11 -4 0 -8 -4 -13 -9
-10 -4 3 -8 0 -8 -6 0 -7 6 -10 14 -7 7 3 19 0 26 -6 9 -9 11 -9 7 -1 -4 7 0
15 9 18 24 9 27 7 14 -9 -11 -13 -10 -14 4 -9 9 3 16 11 16 17 0 6 7 2 16 -9
14 -18 15 -18 8 6 -6 24 -6 24 9 5 8 -11 13 -24 10 -29 -4 -5 -1 -6 6 -2 6 4
9 12 6 17 -4 5 -3 9 2 10 4 0 16 2 26 4 14 3 17 -1 12 -18 -5 -16 -4 -18 3 -8
6 8 15 10 23 5 12 -6 12 -5 1 8 -9 11 -10 18 -2 23 5 3 10 1 10 -5 0 -6 5 -8
12 -4 7 4 8 3 4 -4 -4 -7 -2 -12 4 -12 6 0 8 -5 3 -13 -4 -6 5 -4 21 6 20 14
31 16 39 8 6 -6 16 -11 22 -11 5 0 2 5 -7 11 -19 11 -24 34 -9 43 5 3 8 -2 7
-11 -1 -19 19 -24 44 -12 9 4 23 3 33 -2 14 -8 19 -5 26 13 l10 23 1 -25 c0
-19 3 -21 9 -11 5 8 7 21 4 30 -3 10 -2 12 4 5 4 -6 16 -10 25 -8 10 1 20 -2
23 -6 3 -5 -4 -7 -16 -5 -12 2 -19 1 -15 -2 4 -4 18 -8 32 -9 17 -1 22 2 14
10 -16 16 -12 25 10 21 11 -2 22 0 25 5 3 4 15 6 27 2 16 -4 19 -2 13 8 -5 8
-4 11 3 6 6 -4 9 -13 5 -21 -4 -11 -1 -13 13 -8 13 5 15 3 9 -7 -5 -9 -4 -11
4 -6 9 6 9 12 -1 24 -10 14 -10 15 1 5 7 -6 20 -9 27 -6 8 3 14 0 14 -7 0 -6
-6 -8 -12 -4 -7 4 -6 -1 3 -11 14 -14 21 -15 38 -6 16 9 21 9 21 -1 0 -9 3 -9
10 2 7 11 10 12 10 2 0 -9 7 -11 21 -7 16 5 20 4 15 -6 -4 -8 -1 -6 7 4 15 19
32 24 21 6 -4 -6 1 -9 12 -8 11 2 25 0 31 -4 24 -15 52 -16 47 -2 -3 7 0 16 6
20 6 3 10 3 9 -2 -3 -20 2 -34 11 -28 6 4 7 11 4 17 -4 7 -2 8 5 4 6 -4 9 -11
6 -16 -3 -5 -1 -11 4 -14 5 -4 12 -2 16 4 4 6 10 8 15 5 5 -3 11 -1 15 5 3 5
11 10 17 10 6 0 5 -6 -2 -16 -12 -13 -10 -14 13 -3 15 7 24 15 22 20 -3 4 -1
10 4 13 11 7 9 -13 -3 -32 -4 -7 -5 -16 -2 -19 3 -4 6 -1 6 5 0 18 21 14 37
-5 12 -14 11 -12 0 8 -15 26 -15 27 5 21 14 -3 19 -1 14 6 -3 6 -3 13 2 16 12
7 11 -28 -1 -36 -6 -3 1 -5 16 -5 18 2 23 5 16 14 -8 8 -4 10 13 5 21 -5 22
-4 8 14 -14 18 -14 18 3 5 13 -10 14 -17 7 -26 -8 -10 -8 -15 1 -21 8 -4 9 -3
5 4 -5 8 1 12 14 12 13 0 19 -4 14 -12 -4 -7 -3 -8 5 -4 6 4 9 12 6 17 -4 5
-1 9 5 9 6 0 8 5 4 12 -5 7 -3 8 5 4 7 -5 10 -15 6 -25 -3 -9 5 -3 18 13 16
20 24 24 24 13 0 -9 -4 -14 -9 -11 -4 3 -8 0 -8 -5 0 -14 2 -14 35 3 14 8 23
16 18 18 -4 3 -1 3 7 0 49 -14 53 -15 46 -4 -10 17 3 15 20 -3 9 -8 20 -15 27
-15 6 0 2 7 -9 16 -10 8 -14 13 -7 10 6 -4 17 2 23 11 10 16 11 16 6 1 -3 -10
-1 -20 4 -23 6 -4 10 1 10 9 0 8 5 18 12 22 7 4 8 3 4 -4 -4 -7 -2 -12 4 -12
6 0 8 -5 4 -12 -5 -7 -3 -8 5 -4 7 5 10 13 8 20 -3 7 7 12 24 12 16 1 29 -2
29 -6 0 -3 7 -7 15 -7 12 0 12 3 2 16 -10 12 -9 13 1 7 7 -4 34 -9 60 -10 26
-2 42 -2 35 1 -9 3 -9 9 -1 22 10 16 13 17 29 3 10 -9 15 -20 12 -25 -3 -6 -1
-7 5 -3 9 5 7 15 -5 34 -15 22 -15 25 -2 15 9 -7 19 -9 23 -5 4 4 6 2 4 -3 -1
-6 1 -12 6 -15 5 -3 10 5 11 17 1 13 5 26 10 30 4 5 6 1 2 -8 -4 -12 1 -18 19
-22 18 -3 22 -1 15 6 -6 6 -11 16 -11 21 0 6 4 5 9 -3 5 -8 14 -10 21 -6 10 6
9 11 -5 22 -22 16 -16 17 20 3 15 -6 24 -6 20 -1 -3 5 0 11 7 14 7 2 5 3 -4 2
-9 -2 -25 4 -35 12 -17 13 -16 13 5 3 20 -10 26 -7 23 13 -1 4 7 3 17 -2 16
-8 18 -6 16 20 -2 25 0 27 16 19 14 -7 18 -6 16 5 -1 8 -6 18 -11 22 -4 4 -5
2 0 -6 6 -10 4 -12 -4 -7 -12 8 -7 20 10 22 22 3 23 5 10 13 -12 8 -10 11 11
16 19 5 24 12 23 29 -2 13 2 29 7 37 8 11 9 11 5 -3 -4 -10 1 -18 14 -21 16
-4 18 -3 9 8 -8 9 -6 15 7 20 10 5 20 8 23 7 12 -2 10 62 -2 69 -8 5 1 7 20 4
18 -2 30 0 27 5 -3 4 6 15 19 24 18 11 24 23 22 46 -2 28 8 42 16 21 2 -5 9
-3 15 4 8 9 9 16 3 20 -6 3 -10 1 -10 -5 0 -6 -5 -8 -11 -5 -6 5 -4 12 8 21
22 17 37 18 27 2 -5 -7 -3 -8 5 -4 7 5 10 10 7 13 -3 3 -1 14 5 24 8 15 6 18
-8 13 -17 -5 -17 -5 0 6 9 6 15 15 12 21 -4 5 -4 9 0 9 3 0 10 -10 15 -22 8
-20 9 -19 6 10 -2 17 0 30 5 27 5 -4 17 -1 26 5 17 11 17 11 0 6 -12 -4 -17
-2 -14 6 2 7 13 12 23 10 18 -3 18 -3 -1 13 -13 11 -15 15 -5 12 12 -4 16 3
18 27 1 26 0 28 -8 10 -4 -12 -17 -24 -27 -28 -16 -5 -16 -5 -2 6 20 17 31 46
19 53 -6 4 -10 11 -10 18 0 6 6 2 14 -9 12 -16 17 -17 28 -6 7 7 9 13 3 12
-23 -5 -28 1 -10 13 17 13 16 14 -6 13 -18 -1 -23 4 -21 18 2 12 -1 16 -9 10
-8 -4 -10 -3 -5 5 6 9 11 9 22 0 12 -10 13 -9 8 5 -3 9 -12 16 -18 16 -7 0
-12 11 -12 24 0 14 4 22 8 20 14 -9 9 7 -7 22 -10 11 -12 21 -6 32 6 11 6 24
0 35 -8 13 -6 17 8 17 12 0 6 6 -14 16 -35 17 -41 28 -21 40 6 4 8 3 4 -4 -3
-6 -2 -14 4 -17 7 -4 9 6 5 32 -3 21 -7 46 -8 56 -1 10 -7 15 -14 13 -7 -3
-12 0 -10 7 1 7 -4 11 -12 9 -12 -3 -12 0 -2 12 13 15 36 12 27 -3 -3 -4 1 -8
9 -8 10 0 12 4 5 12 -5 7 -6 15 -2 19 4 4 3 7 -3 6 -21 -5 -36 0 -30 10 3 5
13 6 22 3 15 -6 16 -5 3 9 -11 11 -19 13 -28 6 -9 -8 -11 -7 -6 6 4 11 -1 23
-12 33 -15 11 -12 11 9 -2 27 -16 28 -16 19 2 -5 10 -8 26 -7 36 2 10 -1 14
-8 10 -6 -4 -8 0 -4 10 3 10 2 17 -2 17 -17 0 -37 75 -22 84 4 3 7 -6 5 -19
-1 -14 2 -25 7 -25 6 0 7 -6 3 -12 -4 -7 -4 -10 1 -6 4 4 14 0 22 -10 12 -15
13 -14 1 8 -7 14 -11 28 -10 33 1 4 -3 7 -8 7 -6 0 -10 8 -8 18 2 9 -3 16 -9
14 -7 -1 -13 2 -13 8 0 5 4 10 10 10 5 0 2 9 -7 19 -9 11 -21 17 -27 14 -6 -4
-5 0 2 9 10 13 10 17 0 20 -8 3 -7 6 4 10 11 5 15 2 13 -10 -3 -19 12 -42 28
-42 6 0 3 6 -8 13 -12 10 -14 16 -7 21 9 5 9 12 0 26 -7 10 -16 16 -20 14 -16
-10 -29 7 -17 22 6 8 7 14 2 14 -5 0 -10 7 -10 16 0 15 2 14 13 -1 10 -14 11
-22 3 -32 -8 -9 -8 -13 -1 -13 18 0 23 19 12 41 -6 11 -8 28 -4 37 12 27 13
43 3 36 -5 -3 -7 -9 -4 -14 3 -4 -3 -14 -12 -21 -15 -12 -16 -12 -10 4 4 10 2
28 -5 40 -10 20 -10 21 6 8 14 -12 16 -12 10 3 -3 9 -12 16 -19 16 -14 0 -13
29 1 53 6 9 4 9 -7 1 -9 -8 -21 -8 -34 -3 -19 9 -19 9 1 6 13 -3 25 3 34 17
10 17 10 19 -1 9 -15 -15 -33 -17 -24 -4 3 5 1 12 -5 16 -6 4 -8 11 -5 16 4 5
1 9 -4 9 -6 0 -11 -5 -11 -11 0 -8 -6 -7 -17 2 -11 10 -14 10 -9 2 4 -9 1 -13
-9 -13 -11 0 -15 5 -11 15 3 8 1 15 -4 15 -6 0 -10 -6 -10 -14 0 -8 -9 -14
-19 -13 -11 0 -17 5 -15 9 3 5 10 5 16 2 6 -4 8 -3 5 3 -9 14 -47 9 -58 -8 -8
-10 -9 -8 -4 8 5 18 3 22 -9 17 -9 -3 -13 -10 -10 -15 3 -5 -2 -6 -11 -3 -13
5 -13 9 -3 22 12 14 10 14 -11 3 -18 -10 -25 -10 -35 0 -8 9 -8 10 4 4 8 -5
11 -4 7 0 -10 12 -38 15 -31 4 3 -5 -2 -9 -11 -9 -10 0 -13 5 -9 13 5 7 0 6
-11 -3 -11 -9 -16 -10 -11 -2 4 7 2 12 -4 12 -6 0 -8 5 -4 13 6 9 3 8 -8 -1
-13 -10 -22 -11 -37 -3 -12 7 -22 7 -25 2 -11 -17 -69 5 -59 23 3 6 2 8 -2 3
-5 -4 -17 1 -28 10 -11 10 -18 13 -14 8 3 -6 -4 -17 -16 -24 -12 -8 -19 -10
-15 -6 7 8 -13 35 -22 30 -3 -2 -7 6 -7 18 -2 19 0 18 23 -8 14 -17 22 -24 18
-16 -3 7 0 18 7 23 11 8 10 9 -3 4 -11 -3 -23 3 -32 15 -9 13 -15 16 -18 8 -2
-7 -12 -13 -22 -15 -17 -2 -17 -1 -1 16 10 11 12 20 6 24 -5 4 -14 -1 -19 -10
-8 -15 -10 -15 -15 1 -4 9 -12 13 -18 9 -8 -5 -9 -3 -3 7 13 22 13 58 -1 52
-7 -2 -15 3 -19 12 -4 10 -12 15 -22 11 -10 -4 -13 -2 -8 6 5 8 2 9 -9 5 -11
-4 -21 1 -28 15 -9 18 -8 24 7 35 10 7 13 13 7 13 -7 0 -14 -4 -18 -10 -8 -13
-35 -1 -35 16 0 8 -4 14 -10 14 -5 0 -7 -6 -4 -14 3 -8 1 -17 -5 -21 -7 -3 -8
0 -5 9 6 14 -5 21 -29 17 -4 0 -6 4 -5 10 2 6 -3 14 -11 17 -10 3 -11 0 -5 -9
7 -12 5 -12 -9 0 -9 7 -17 19 -16 25 0 7 2 7 5 -1 3 -7 11 -10 18 -7 8 3 21
-2 30 -12 14 -13 20 -14 29 -4 9 10 9 11 -1 6 -7 -4 -15 -1 -18 7 -5 14 -14
16 -67 18 -21 0 -27 4 -23 15 3 8 2 13 -3 10 -4 -3 -17 1 -27 9 -10 8 -23 14
-29 15 -5 0 -3 -5 5 -10 8 -5 16 -19 16 -30 1 -11 -1 -18 -5 -14 -3 3 -6 11
-6 17 0 7 -8 11 -17 11 -10 -1 -17 1 -16 5 2 20 -4 31 -17 31 -8 0 -15 5 -15
11 0 6 -9 8 -21 4 -28 -9 -71 -14 -64 -7 2 3 -3 11 -13 19 -9 8 -12 12 -5 9 6
-4 15 -1 19 5 4 8 3 9 -4 5 -7 -4 -12 -2 -12 4 0 6 -4 9 -9 6 -5 -4 -12 0 -14
6 -4 10 -6 10 -6 0 -1 -7 -6 -10 -13 -6 -6 4 -8 3 -4 -4 3 -6 1 -14 -5 -18 -7
-4 -9 -3 -5 4 3 6 0 17 -8 25 -8 8 -13 17 -11 19 2 2 -12 4 -33 3 -25 0 -36
-4 -34 -13 1 -8 -2 -11 -8 -7 -8 5 -7 11 1 21 9 11 8 14 -3 14 -8 0 -19 -5
-25 -11 -8 -8 -13 -7 -18 2 -6 8 -4 10 5 4 9 -6 11 -4 5 5 -5 8 -4 11 3 6 6
-3 13 -2 16 3 5 8 -15 8 -34 1 -3 -1 -9 -2 -13 -1 -5 1 -5 -4 -1 -11 4 -7 4
-10 -1 -6 -4 4 -15 2 -24 -4 -13 -10 -14 -10 -3 2 16 18 15 27 -3 27 -8 0 -12
-4 -9 -9z m174 -43 c11 -13 10 -14 -4 -9 -9 3 -16 10 -16 15 0 13 6 11 20 -6z
m-313 -30 c4 -4 3 -5 -4 -1 -7 3 -13 -1 -15 -11 -3 -15 -5 -15 -10 3 -6 22 12
28 29 9z m370 -7 c-3 -8 -6 -5 -6 6 -1 11 2 17 5 13 3 -3 4 -12 1 -19z m-1363
-19 c3 -3 -4 -5 -14 -6 -11 -1 -20 2 -20 7 0 8 25 8 34 -1z m1499 -22 c4 3 7
1 7 -5 0 -7 -4 -12 -8 -12 -12 0 -32 22 -32 35 0 5 7 2 14 -7 7 -10 16 -15 19
-11z m-1622 -14 c11 -15 11 -16 -1 -5 -21 18 -34 15 -19 -5 12 -16 12 -17 -2
-6 -9 7 -20 9 -25 5 -4 -4 -2 1 5 11 7 9 17 17 21 17 4 0 14 -8 21 -17z m893
-8 c-4 -8 -11 -12 -16 -9 -6 4 -5 10 3 15 19 12 19 11 13 -6z m76 11 c0 -3 -4
-8 -10 -11 -5 -3 -10 -1 -10 4 0 6 5 11 10 11 6 0 10 -2 10 -4z m-1040 -26
c-6 -11 -13 -20 -16 -20 -2 0 0 9 6 20 6 11 13 20 16 20 2 0 0 -9 -6 -20z
m-132 -65 c-3 -3 -9 2 -12 12 -6 14 -5 15 5 6 7 -7 10 -15 7 -18z m-21 -10 c0
-8 -4 -12 -9 -9 -5 3 -6 10 -3 15 9 13 12 11 12 -6z m2191 -113 c-5 -2 -5 -9
-2 -14 4 -7 2 -8 -5 -4 -6 4 -9 12 -5 17 3 6 -4 13 -16 16 -14 4 -18 8 -10 13
7 4 20 0 29 -9 9 -9 13 -18 9 -19z m-2248 7 c0 -5 -4 -9 -8 -9 -5 0 -9 7 -9
15 0 8 4 12 9 9 4 -3 8 -9 8 -15z m2415 -150 c-4 -5 -12 -9 -18 -8 -9 0 -8 2
1 6 6 2 9 10 6 15 -4 7 -2 8 5 4 6 -4 9 -12 6 -17z m8 -24 c-3 -9 -8 -14 -10
-11 -3 3 -2 9 2 15 9 16 15 13 8 -4z m95 -10 c-3 -3 -9 2 -12 12 -6 14 -5 15
5 6 7 -7 10 -15 7 -18z m39 -7 c-3 -8 -6 -5 -6 6 -1 11 2 17 5 13 3 -3 4 -12
1 -19z m108 -36 c-3 -3 -11 0 -18 7 -9 10 -8 11 6 5 10 -3 15 -9 12 -12z m200
-11 c3 -5 1 -12 -5 -16 -5 -3 -10 1 -10 9 0 18 6 21 15 7z m-3029 -48 c-3 -4
-6 -1 -6 6 0 7 -5 9 -10 6 -6 -4 -7 -11 -4 -17 4 -7 2 -8 -4 -4 -9 5 -8 12 0
26 11 17 14 17 21 4 5 -9 6 -18 3 -21z m-71 -32 c-4 -3 -12 -6 -18 -6 -7 -1
-11 -6 -9 -13 2 -14 -4 -16 -13 -3 -7 13 24 43 36 35 6 -3 7 -9 4 -13z m-342
-206 c-3 -9 -8 -14 -10 -11 -3 3 -2 9 2 15 9 16 15 13 8 -4z m-39 -157 c-3 -5
-10 -6 -15 -3 -5 4 -9 -1 -9 -10 0 -9 -5 -13 -10 -10 -8 5 -8 11 -1 19 12 14
43 18 35 4z m3646 -260 c0 -4 -5 -8 -12 -8 -6 0 -8 3 -5 6 3 4 2 16 -4 28 -10
20 -10 20 5 2 9 -11 16 -23 16 -28z m-3760 -182 c0 -2 -7 -7 -16 -10 -8 -3
-12 -2 -9 4 6 10 25 14 25 6z m-40 -235 c0 -6 -4 -12 -8 -15 -5 -3 -9 1 -9 9
0 8 4 15 9 15 4 0 8 -4 8 -9z m3703 -179 c3 7 5 3 3 -9 -1 -12 -15 -32 -32
-45 -16 -12 -24 -16 -17 -8 6 8 12 20 13 25 1 6 6 9 11 8 13 -4 11 11 -3 27
-11 12 -10 12 4 2 13 -10 17 -10 21 0z m-3526 -98 c-3 -3 -12 -4 -19 -1 -8 3
-5 6 6 6 11 1 17 -2 13 -5z m3453 -29 c0 -12 -19 -12 -23 0 -4 9 -1 12 9 8 7
-3 14 -7 14 -8z m-3370 -55 c0 -5 -2 -10 -4 -10 -3 0 -8 5 -11 10 -3 6 -1 10
4 10 6 0 11 -4 11 -10z m3220 -120 c0 -5 -5 -10 -11 -10 -5 0 -7 5 -4 10 3 6
8 10 11 10 2 0 4 -4 4 -10z m-3036 -102 c-3 -4 -9 -8 -15 -8 -5 0 -9 4 -9 8 0
5 7 9 15 9 8 0 12 -4 9 -9z m872 0 c-2 -14 -8 -18 -28 -18 -6 0 -3 7 8 15 23
18 23 18 20 3z m1959 -17 c3 -6 -3 -14 -13 -20 -14 -7 -19 -6 -19 4 0 7 7 11
15 7 10 -3 13 -1 8 6 -4 7 -5 12 -2 12 3 0 7 -4 11 -9z m-2563 -38 c-6 -2 -9
-10 -6 -15 4 -7 2 -8 -5 -4 -13 9 -5 26 12 25 9 0 8 -2 -1 -6z m428 -25 c0 -5
-9 -3 -20 4 -11 7 -20 16 -20 20 0 5 9 3 20 -4 11 -7 20 -16 20 -20z m420 26
c0 -8 -19 -13 -24 -6 -3 5 1 9 9 9 8 0 15 -2 15 -3z m800 -4 c0 -5 -2 -10 -4
-10 -2 0 -12 -3 -22 -7 -16 -6 -17 -5 -4 10 17 19 30 22 30 7z m-292 -25 c-3
-3 -9 2 -12 12 -6 14 -5 15 5 6 7 -7 10 -15 7 -18z m-1058 -19 c-12 -12 -42
-17 -35 -6 3 5 -1 11 -7 14 -7 3 -1 3 15 -1 23 -4 26 -3 21 13 -5 16 -4 16 5
4 6 -9 7 -18 1 -24z m614 18 c3 -8 2 -12 -4 -9 -6 3 -10 10 -10 16 0 14 7 11
14 -7z m96 12 c0 -2 -8 -10 -17 -17 -16 -13 -17 -12 -4 4 13 16 21 21 21 13z
m222 -10 c10 6 9 3 -1 -9 -7 -9 -18 -17 -24 -17 -6 0 -7 3 -4 7 4 3 1 13 -6
22 -10 14 -10 14 5 3 10 -8 23 -10 30 -6z m62 6 c3 -5 -1 -9 -9 -9 -8 0 -12 4
-9 9 3 4 7 8 9 8 2 0 6 -4 9 -8z m520 -8 c5 -14 4 -15 -9 -4 -17 14 -19 20 -6
20 5 0 12 -7 15 -16z m97 -1 c7 -10 9 -15 5 -11 -5 4 -16 2 -25 -5 -14 -10
-14 -10 -4 4 7 9 10 19 6 22 -3 4 -4 7 -1 7 3 0 12 -8 19 -17z m220 -6 c-10
-9 -11 -8 -5 6 3 10 9 15 12 12 3 -3 0 -11 -7 -18z m-1921 -11 c0 -3 -4 -8
-10 -11 -5 -3 -10 -1 -10 4 0 6 5 11 10 11 6 0 10 -2 10 -4z"/>
<path d="M1577 3563 c-4 -3 -7 -11 -7 -17 0 -6 5 -5 12 2 6 6 9 14 7 17 -3 3
-9 2 -12 -2z"/>
<path d="M1655 3561 c-3 -5 -1 -12 5 -16 5 -3 10 1 10 9 0 18 -6 21 -15 7z"/>
<path d="M1686 3552 c-3 -5 1 -9 9 -9 8 0 15 4 15 9 0 4 -4 8 -9 8 -6 0 -12
-4 -15 -8z"/>
<path d="M2376 3551 c-12 -18 18 -30 38 -15 11 8 15 14 9 14 -7 0 -15 -5 -18
-10 -4 -6 -11 -8 -16 -4 -5 3 -7 10 -4 15 4 5 4 9 1 9 -3 0 -7 -4 -10 -9z"/>
<path d="M1510 3542 c0 -7 -7 -12 -15 -12 -8 0 -15 -4 -15 -10 0 -5 4 -10 9
-10 13 0 35 29 27 37 -3 3 -6 1 -6 -5z"/>
<path d="M1813 3531 c0 -11 5 -18 9 -15 4 3 5 11 1 19 -7 21 -12 19 -10 -4z"/>
<path d="M1436 3532 c-4 -7 -2 -12 4 -12 6 0 8 -5 4 -12 -5 -9 -2 -9 9 1 18
14 23 26 8 17 -5 -4 -11 -1 -13 6 -3 9 -6 9 -12 0z"/>
<path d="M1405 3509 c-4 -6 -4 -13 -1 -16 3 -4 6 -1 6 6 0 7 5 9 12 5 7 -4 8
-3 4 4 -9 15 -13 15 -21 1z"/>
<path d="M2825 3500 c-3 -5 -12 -7 -20 -3 -8 3 -15 3 -15 0 0 -13 30 -14 40
-1 7 8 10 14 7 14 -3 0 -8 -4 -12 -10z"/>
<path d="M2181 3464 c0 -11 3 -14 6 -6 3 7 2 16 -1 19 -3 4 -6 -2 -5 -13z"/>
<path d="M2025 3459 c-3 -4 2 -6 10 -5 21 3 28 13 10 13 -9 0 -18 -4 -20 -8z"/>
<path d="M3156 3322 c-2 -4 -1 -14 4 -22 7 -11 9 -9 7 8 -1 24 -3 26 -11 14z"/>
<path d="M3255 3200 c3 -5 8 -10 11 -10 2 0 4 5 4 10 0 6 -5 10 -11 10 -5 0
-7 -4 -4 -10z"/>
<path d="M890 3130 c0 -5 5 -10 11 -10 5 0 7 5 4 10 -3 6 -8 10 -11 10 -2 0
-4 -4 -4 -10z"/>
<path d="M875 3100 c-3 -5 -1 -10 4 -10 6 0 11 5 11 10 0 6 -2 10 -4 10 -3 0
-8 -4 -11 -10z"/>
<path d="M3438 3103 c6 -2 10 -8 8 -12 -3 -4 1 -8 9 -8 11 0 12 4 4 14 -6 7
-17 13 -23 12 -7 0 -6 -2 2 -6z"/>
<path d="M3885 2941 c-3 -5 -2 -12 3 -15 5 -3 9 1 9 9 0 17 -3 19 -12 6z"/>
<path d="M525 2860 c3 -5 -1 -10 -9 -10 -9 0 -16 -5 -16 -10 0 -7 7 -7 20 0
17 9 20 30 4 30 -3 0 -2 -4 1 -10z"/>
<path d="M440 2815 c-8 -9 -8 -15 -2 -15 12 0 26 19 19 26 -2 2 -10 -2 -17
-11z"/>
<path d="M333 2655 c0 -8 4 -12 9 -9 5 3 6 10 3 15 -9 13 -12 11 -12 -6z"/>
<path d="M255 2349 c-4 -6 -5 -12 -2 -15 2 -3 7 2 10 11 7 17 1 20 -8 4z"/>
<path d="M224 2178 c10 -6 22 -6 26 -2 5 5 -3 10 -18 11 -22 1 -24 0 -8 -9z"/>
<path d="M4040 2160 c-9 -6 -10 -10 -3 -10 6 0 15 5 18 10 8 12 4 12 -15 0z"/>
<path d="M4040 2097 c0 -3 12 -12 26 -22 15 -9 23 -12 20 -6 -7 11 -46 35 -46
28z"/>
<path d="M187 2019 c7 -7 15 -10 18 -7 3 3 -2 9 -12 12 -14 6 -15 5 -6 -5z"/>
<path d="M441 1467 c-8 -10 -7 -14 2 -14 8 0 14 6 14 14 0 7 -1 13 -2 13 -2 0
-8 -6 -14 -13z"/>
<path d="M3755 1439 c-4 -6 -5 -12 -2 -15 2 -3 7 2 10 11 7 17 1 20 -8 4z"/>
<path d="M1656 1255 c-3 -8 -1 -15 4 -15 6 0 10 7 10 15 0 8 -2 15 -4 15 -2 0
-6 -7 -10 -15z"/>
<path d="M826 1253 c-11 -11 -7 -20 9 -20 8 0 15 4 15 8 0 11 -16 20 -24 12z"/>
<path d="M2416 1242 c-4 -7 -12 -9 -18 -6 -6 4 -8 3 -5 -3 7 -11 43 -10 54 2
5 4 3 5 -4 2 -6 -4 -13 -2 -15 5 -3 9 -6 9 -12 0z"/>
<path d="M3343 1223 c0 -9 4 -10 14 -2 7 6 13 12 13 14 0 1 -6 2 -13 2 -8 0
-14 -6 -14 -14z"/>
<path d="M3170 1202 c0 -5 7 -9 15 -9 8 0 12 4 9 9 -3 4 -9 8 -15 8 -5 0 -9
-4 -9 -8z"/>
</g>
</svg>
